<mxfile host="app.diagrams.net" modified="2024-04-23T13:44:54.956Z" agent="Mozilla/5.0 (Macintosh; Intel Mac OS X 10_15_7) AppleWebKit/605.1.15 (KHTML, like Gecko) Version/17.2 Safari/605.1.15" etag="9XNgS1aOs5KuPsmszIIL" version="24.2.5" type="device">
  <diagram name="Page-1" id="g4quX2xEzRCGqjBjcnTt">
    <mxGraphModel dx="766" dy="639" grid="1" gridSize="10" guides="1" tooltips="1" connect="1" arrows="1" fold="1" page="1" pageScale="1" pageWidth="2336" pageHeight="1654" math="0" shadow="0">
      <root>
        <mxCell id="0" />
        <mxCell id="1" parent="0" />
        <mxCell id="1VGAK7dtnCJyhmM4IwNI-69" value="" style="rounded=1;whiteSpace=wrap;html=1;arcSize=5;" vertex="1" parent="1">
          <mxGeometry x="170" y="90" width="690" height="540" as="geometry" />
        </mxCell>
        <mxCell id="1VGAK7dtnCJyhmM4IwNI-2" value="" style="ellipse;whiteSpace=wrap;html=1;aspect=fixed;strokeColor=#000000;fillColor=#000000;" vertex="1" parent="1">
          <mxGeometry x="240" y="120" width="30" height="30" as="geometry" />
        </mxCell>
        <mxCell id="1VGAK7dtnCJyhmM4IwNI-5" style="edgeStyle=orthogonalEdgeStyle;rounded=0;orthogonalLoop=1;jettySize=auto;html=1;exitX=0.5;exitY=1;exitDx=0;exitDy=0;entryX=0.5;entryY=0;entryDx=0;entryDy=0;entryPerimeter=0;" edge="1" parent="1" source="1VGAK7dtnCJyhmM4IwNI-2">
          <mxGeometry relative="1" as="geometry">
            <mxPoint x="254.995" y="280" as="targetPoint" />
          </mxGeometry>
        </mxCell>
        <mxCell id="1VGAK7dtnCJyhmM4IwNI-6" style="edgeStyle=orthogonalEdgeStyle;rounded=0;orthogonalLoop=1;jettySize=auto;html=1;exitX=0.5;exitY=1;exitDx=0;exitDy=0;entryX=0;entryY=0.5;entryDx=0;entryDy=0;" edge="1" parent="1" source="1VGAK7dtnCJyhmM4IwNI-7" target="1VGAK7dtnCJyhmM4IwNI-10">
          <mxGeometry relative="1" as="geometry" />
        </mxCell>
        <mxCell id="1VGAK7dtnCJyhmM4IwNI-7" value="Plan navigation" style="rounded=0;whiteSpace=wrap;html=1;" vertex="1" parent="1">
          <mxGeometry x="195" y="280" width="120" height="60" as="geometry" />
        </mxCell>
        <mxCell id="1VGAK7dtnCJyhmM4IwNI-28" style="edgeStyle=orthogonalEdgeStyle;rounded=0;orthogonalLoop=1;jettySize=auto;html=1;exitX=1;exitY=0.5;exitDx=0;exitDy=0;entryX=0;entryY=0.5;entryDx=0;entryDy=0;" edge="1" parent="1" source="1VGAK7dtnCJyhmM4IwNI-10" target="1VGAK7dtnCJyhmM4IwNI-27">
          <mxGeometry relative="1" as="geometry" />
        </mxCell>
        <mxCell id="1VGAK7dtnCJyhmM4IwNI-10" value="Move along planned path" style="rounded=1;whiteSpace=wrap;html=1;" vertex="1" parent="1">
          <mxGeometry x="330" y="490" width="150" height="60" as="geometry" />
        </mxCell>
        <mxCell id="1VGAK7dtnCJyhmM4IwNI-11" value="Stm3: Take lift" style="rounded=0;whiteSpace=wrap;html=1;" vertex="1" parent="1">
          <mxGeometry x="195" y="70" width="180" height="20" as="geometry" />
        </mxCell>
        <mxCell id="1VGAK7dtnCJyhmM4IwNI-22" style="edgeStyle=orthogonalEdgeStyle;rounded=0;orthogonalLoop=1;jettySize=auto;html=1;exitX=0;exitY=0.5;exitDx=0;exitDy=0;exitPerimeter=0;entryX=1;entryY=0.5;entryDx=0;entryDy=0;" edge="1" parent="1" source="1VGAK7dtnCJyhmM4IwNI-13" target="1VGAK7dtnCJyhmM4IwNI-7">
          <mxGeometry relative="1" as="geometry" />
        </mxCell>
        <mxCell id="1VGAK7dtnCJyhmM4IwNI-13" value="Obstacle detected" style="shape=mxgraph.sysml.flowFinal;labelPosition=right;verticalLabelPosition=top;spacingTop=5;spacingLeft=3;align=left;verticalAlign=top;resizable=0;html=1;direction=south;" vertex="1" parent="1">
          <mxGeometry x="395" y="480" width="20" height="20" as="geometry" />
        </mxCell>
        <mxCell id="1VGAK7dtnCJyhmM4IwNI-19" value="" style="shape=mxgraph.sysml.x;" vertex="1" parent="1">
          <mxGeometry x="530" y="120" width="40" height="40" as="geometry" />
        </mxCell>
        <mxCell id="1VGAK7dtnCJyhmM4IwNI-27" value="&lt;div&gt;&lt;br&gt;&lt;/div&gt;" style="rounded=1;whiteSpace=wrap;html=1;" vertex="1" parent="1">
          <mxGeometry x="610" y="450" width="220" height="140" as="geometry" />
        </mxCell>
        <mxCell id="1VGAK7dtnCJyhmM4IwNI-33" value="" style="endArrow=none;html=1;rounded=0;" edge="1" parent="1">
          <mxGeometry width="50" height="50" relative="1" as="geometry">
            <mxPoint x="610" y="480" as="sourcePoint" />
            <mxPoint x="830" y="480" as="targetPoint" />
          </mxGeometry>
        </mxCell>
        <mxCell id="1VGAK7dtnCJyhmM4IwNI-39" style="edgeStyle=orthogonalEdgeStyle;rounded=0;orthogonalLoop=1;jettySize=auto;html=1;exitX=0.5;exitY=0;exitDx=0;exitDy=0;entryX=0.5;entryY=1;entryDx=0;entryDy=0;" edge="1" parent="1" source="1VGAK7dtnCJyhmM4IwNI-34">
          <mxGeometry relative="1" as="geometry">
            <mxPoint x="720" y="370" as="targetPoint" />
          </mxGeometry>
        </mxCell>
        <mxCell id="1VGAK7dtnCJyhmM4IwNI-40" value="Lift Arrived" style="edgeLabel;html=1;align=center;verticalAlign=middle;resizable=0;points=[];" vertex="1" connectable="0" parent="1VGAK7dtnCJyhmM4IwNI-39">
          <mxGeometry x="-0.1761" relative="1" as="geometry">
            <mxPoint y="-10" as="offset" />
          </mxGeometry>
        </mxCell>
        <mxCell id="1VGAK7dtnCJyhmM4IwNI-34" value="Waiting at lift" style="text;html=1;align=center;verticalAlign=middle;whiteSpace=wrap;rounded=0;" vertex="1" parent="1">
          <mxGeometry x="655" y="450" width="130" height="30" as="geometry" />
        </mxCell>
        <mxCell id="1VGAK7dtnCJyhmM4IwNI-35" value="Entry: Path planning complete room" style="text;strokeColor=none;fillColor=none;align=left;verticalAlign=middle;spacingLeft=4;spacingRight=4;overflow=hidden;points=[[0,0.5],[1,0.5]];portConstraint=eastwest;rotatable=0;whiteSpace=wrap;html=1;" vertex="1" parent="1">
          <mxGeometry x="610" y="480" width="210" height="30" as="geometry" />
        </mxCell>
        <mxCell id="1VGAK7dtnCJyhmM4IwNI-36" value="Exit: After lift door is open" style="text;strokeColor=none;fillColor=none;align=left;verticalAlign=middle;spacingLeft=4;spacingRight=4;overflow=hidden;points=[[0,0.5],[1,0.5]];portConstraint=eastwest;rotatable=0;whiteSpace=wrap;html=1;" vertex="1" parent="1">
          <mxGeometry x="610" y="530" width="190" height="30" as="geometry" />
        </mxCell>
        <mxCell id="1VGAK7dtnCJyhmM4IwNI-37" value="Event: [other people using lift] Wait" style="text;strokeColor=none;fillColor=none;align=left;verticalAlign=middle;spacingLeft=4;spacingRight=4;overflow=hidden;points=[[0,0.5],[1,0.5]];portConstraint=eastwest;rotatable=0;whiteSpace=wrap;html=1;" vertex="1" parent="1">
          <mxGeometry x="610" y="540" width="200" height="60" as="geometry" />
        </mxCell>
        <mxCell id="1VGAK7dtnCJyhmM4IwNI-38" value="Do: Call for lift&lt;div&gt;&lt;br&gt;&lt;/div&gt;" style="text;strokeColor=none;fillColor=none;align=left;verticalAlign=middle;spacingLeft=4;spacingRight=4;overflow=hidden;points=[[0,0.5],[1,0.5]];portConstraint=eastwest;rotatable=0;whiteSpace=wrap;html=1;" vertex="1" parent="1">
          <mxGeometry x="610" y="510" width="130" height="30" as="geometry" />
        </mxCell>
        <mxCell id="1VGAK7dtnCJyhmM4IwNI-51" style="edgeStyle=orthogonalEdgeStyle;rounded=0;orthogonalLoop=1;jettySize=auto;html=1;exitX=0.5;exitY=0;exitDx=0;exitDy=0;entryX=0.5;entryY=1;entryDx=0;entryDy=0;" edge="1" parent="1" target="1VGAK7dtnCJyhmM4IwNI-42">
          <mxGeometry relative="1" as="geometry">
            <mxPoint x="720" y="310" as="sourcePoint" />
          </mxGeometry>
        </mxCell>
        <mxCell id="1VGAK7dtnCJyhmM4IwNI-52" value="In lift" style="edgeLabel;html=1;align=center;verticalAlign=middle;resizable=0;points=[];" vertex="1" connectable="0" parent="1VGAK7dtnCJyhmM4IwNI-51">
          <mxGeometry x="-0.1113" y="-4" relative="1" as="geometry">
            <mxPoint x="-4" as="offset" />
          </mxGeometry>
        </mxCell>
        <mxCell id="1VGAK7dtnCJyhmM4IwNI-42" value="&lt;div&gt;&lt;br&gt;&lt;/div&gt;" style="rounded=1;whiteSpace=wrap;html=1;" vertex="1" parent="1">
          <mxGeometry x="610" y="120" width="220" height="140" as="geometry" />
        </mxCell>
        <mxCell id="1VGAK7dtnCJyhmM4IwNI-43" value="" style="endArrow=none;html=1;rounded=0;" edge="1" parent="1">
          <mxGeometry width="50" height="50" relative="1" as="geometry">
            <mxPoint x="610" y="150" as="sourcePoint" />
            <mxPoint x="830" y="150" as="targetPoint" />
          </mxGeometry>
        </mxCell>
        <mxCell id="1VGAK7dtnCJyhmM4IwNI-44" value="Waiting in lift" style="text;html=1;align=center;verticalAlign=middle;whiteSpace=wrap;rounded=0;" vertex="1" parent="1">
          <mxGeometry x="655" y="120" width="130" height="30" as="geometry" />
        </mxCell>
        <mxCell id="1VGAK7dtnCJyhmM4IwNI-45" value="Entry: Robot safely in lift" style="text;strokeColor=none;fillColor=none;align=left;verticalAlign=middle;spacingLeft=4;spacingRight=4;overflow=hidden;points=[[0,0.5],[1,0.5]];portConstraint=eastwest;rotatable=0;whiteSpace=wrap;html=1;" vertex="1" parent="1">
          <mxGeometry x="610" y="150" width="210" height="30" as="geometry" />
        </mxCell>
        <mxCell id="1VGAK7dtnCJyhmM4IwNI-46" value="Exit: After floor reached and door open" style="text;strokeColor=none;fillColor=none;align=left;verticalAlign=middle;spacingLeft=4;spacingRight=4;overflow=hidden;points=[[0,0.5],[1,0.5]];portConstraint=eastwest;rotatable=0;whiteSpace=wrap;html=1;" vertex="1" parent="1">
          <mxGeometry x="610" y="200" width="220" height="30" as="geometry" />
        </mxCell>
        <mxCell id="1VGAK7dtnCJyhmM4IwNI-47" value="Event: [lift stops] Call for assistance" style="text;strokeColor=none;fillColor=none;align=left;verticalAlign=middle;spacingLeft=4;spacingRight=4;overflow=hidden;points=[[0,0.5],[1,0.5]];portConstraint=eastwest;rotatable=0;whiteSpace=wrap;html=1;" vertex="1" parent="1">
          <mxGeometry x="610" y="230" width="200" height="20" as="geometry" />
        </mxCell>
        <mxCell id="1VGAK7dtnCJyhmM4IwNI-61" style="edgeStyle=orthogonalEdgeStyle;rounded=0;orthogonalLoop=1;jettySize=auto;html=1;exitX=0;exitY=0.5;exitDx=0;exitDy=0;entryX=1;entryY=0.5;entryDx=0;entryDy=0;" edge="1" parent="1" source="1VGAK7dtnCJyhmM4IwNI-48" target="1VGAK7dtnCJyhmM4IwNI-60">
          <mxGeometry relative="1" as="geometry" />
        </mxCell>
        <mxCell id="1VGAK7dtnCJyhmM4IwNI-48" value="Do: Send lift to correct floor&lt;div&gt;&lt;br&gt;&lt;/div&gt;" style="text;strokeColor=none;fillColor=none;align=left;verticalAlign=middle;spacingLeft=4;spacingRight=4;overflow=hidden;points=[[0,0.5],[1,0.5]];portConstraint=eastwest;rotatable=0;whiteSpace=wrap;html=1;" vertex="1" parent="1">
          <mxGeometry x="610" y="180" width="170" height="30" as="geometry" />
        </mxCell>
        <mxCell id="1VGAK7dtnCJyhmM4IwNI-53" value="Entering Lift" style="rounded=1;whiteSpace=wrap;html=1;" vertex="1" parent="1">
          <mxGeometry x="632.5" y="310" width="175" height="60" as="geometry" />
        </mxCell>
        <mxCell id="1VGAK7dtnCJyhmM4IwNI-57" style="edgeStyle=orthogonalEdgeStyle;rounded=0;orthogonalLoop=1;jettySize=auto;html=1;exitX=0.5;exitY=1;exitDx=0;exitDy=0;exitPerimeter=0;entryX=0.5;entryY=0;entryDx=0;entryDy=0;" edge="1" parent="1" source="1VGAK7dtnCJyhmM4IwNI-54" target="1VGAK7dtnCJyhmM4IwNI-56">
          <mxGeometry relative="1" as="geometry">
            <Array as="points">
              <mxPoint x="502" y="340" />
            </Array>
          </mxGeometry>
        </mxCell>
        <mxCell id="1VGAK7dtnCJyhmM4IwNI-58" value="Unable to enter" style="edgeLabel;html=1;align=center;verticalAlign=middle;resizable=0;points=[];" vertex="1" connectable="0" parent="1VGAK7dtnCJyhmM4IwNI-57">
          <mxGeometry x="-0.0993" y="1" relative="1" as="geometry">
            <mxPoint x="27" y="-1" as="offset" />
          </mxGeometry>
        </mxCell>
        <mxCell id="1VGAK7dtnCJyhmM4IwNI-54" value="" style="shape=mxgraph.sysml.flowFinal;labelPosition=right;verticalLabelPosition=top;spacingTop=5;spacingLeft=3;align=left;verticalAlign=top;resizable=0;html=1;direction=south;" vertex="1" parent="1">
          <mxGeometry x="620" y="330" width="20" height="20" as="geometry" />
        </mxCell>
        <mxCell id="1VGAK7dtnCJyhmM4IwNI-56" value="Calling for assistance" style="rounded=1;whiteSpace=wrap;html=1;" vertex="1" parent="1">
          <mxGeometry x="427.5" y="415" width="150" height="35" as="geometry" />
        </mxCell>
        <mxCell id="1VGAK7dtnCJyhmM4IwNI-71" style="edgeStyle=orthogonalEdgeStyle;rounded=0;orthogonalLoop=1;jettySize=auto;html=1;exitX=0.5;exitY=0;exitDx=0;exitDy=0;" edge="1" parent="1" source="1VGAK7dtnCJyhmM4IwNI-60" target="1VGAK7dtnCJyhmM4IwNI-19">
          <mxGeometry relative="1" as="geometry">
            <Array as="points">
              <mxPoint x="448" y="140" />
            </Array>
          </mxGeometry>
        </mxCell>
        <mxCell id="1VGAK7dtnCJyhmM4IwNI-72" value="Exited" style="edgeLabel;html=1;align=center;verticalAlign=middle;resizable=0;points=[];" vertex="1" connectable="0" parent="1VGAK7dtnCJyhmM4IwNI-71">
          <mxGeometry x="0.2854" y="1" relative="1" as="geometry">
            <mxPoint as="offset" />
          </mxGeometry>
        </mxCell>
        <mxCell id="1VGAK7dtnCJyhmM4IwNI-60" value="Exiting lift" style="rounded=1;whiteSpace=wrap;html=1;" vertex="1" parent="1">
          <mxGeometry x="360" y="200" width="175" height="55" as="geometry" />
        </mxCell>
        <mxCell id="1VGAK7dtnCJyhmM4IwNI-63" style="edgeStyle=orthogonalEdgeStyle;rounded=0;orthogonalLoop=1;jettySize=auto;html=1;exitX=1;exitY=0.5;exitDx=0;exitDy=0;exitPerimeter=0;entryX=0.5;entryY=0;entryDx=0;entryDy=0;" edge="1" parent="1" source="1VGAK7dtnCJyhmM4IwNI-62" target="1VGAK7dtnCJyhmM4IwNI-56">
          <mxGeometry relative="1" as="geometry">
            <Array as="points">
              <mxPoint x="448" y="340" />
              <mxPoint x="502" y="340" />
            </Array>
          </mxGeometry>
        </mxCell>
        <mxCell id="1VGAK7dtnCJyhmM4IwNI-64" value="Unable to exit" style="edgeLabel;html=1;align=center;verticalAlign=middle;resizable=0;points=[];" vertex="1" connectable="0" parent="1VGAK7dtnCJyhmM4IwNI-63">
          <mxGeometry x="-0.6635" y="1" relative="1" as="geometry">
            <mxPoint x="-1" as="offset" />
          </mxGeometry>
        </mxCell>
        <mxCell id="1VGAK7dtnCJyhmM4IwNI-62" value="" style="shape=mxgraph.sysml.flowFinal;labelPosition=right;verticalLabelPosition=top;spacingTop=5;spacingLeft=3;align=left;verticalAlign=top;resizable=0;html=1;direction=south;" vertex="1" parent="1">
          <mxGeometry x="437.5" y="250" width="20" height="20" as="geometry" />
        </mxCell>
      </root>
    </mxGraphModel>
  </diagram>
</mxfile>
